<?xml version="1.0" encoding="iso-8859-1"?>
<!-- Generator: Adobe Illustrator 18.0.0, SVG Export Plug-In . SVG Version: 6.00 Build 0)  -->
<!DOCTYPE svg PUBLIC "-//W3C//DTD SVG 1.1//EN" "http://www.w3.org/Graphics/SVG/1.1/DTD/svg11.dtd">
<svg version="1.1" id="Capa_1" xmlns="http://www.w3.org/2000/svg" xmlns:xlink="http://www.w3.org/1999/xlink" x="0px" y="0px"
	 viewBox="0 0 301.055 301.055" style="enable-background:new 0 0 301.055 301.055;" xml:space="preserve">
<path d="M189.798,31.551c0-4.143-3.357-7.5-7.5-7.5h-79.453c-4.143,0-7.5,3.357-7.5,7.5v47.687c0,4.143,3.357,7.5,7.5,7.5h71.953
	v21.186L102.845,179.9l-18.532-18.54c-1.571-1.571-3.769-2.362-5.97-2.168c-2.213,0.197-4.225,1.365-5.493,3.189L1.342,265.221
	c-1.594,2.292-1.782,5.28-0.488,7.755c1.293,2.476,3.855,4.026,6.647,4.026h286.035c0.008,0.001,0.016,0.001,0.02,0
	c4.143,0,7.5-3.357,7.5-7.5c0-1.783-0.622-3.421-1.661-4.708L189.798,108.66V31.551z M110.345,71.738V39.051h64.453v32.687H110.345z
	 M21.85,262.003l58.195-83.694l17.495,17.503c1.407,1.406,3.315,2.197,5.305,2.197c1.989,0,3.897-0.791,5.304-2.197l73.141-73.165
	l97.818,139.357H21.85z"/>
<g>
</g>
<g>
</g>
<g>
</g>
<g>
</g>
<g>
</g>
<g>
</g>
<g>
</g>
<g>
</g>
<g>
</g>
<g>
</g>
<g>
</g>
<g>
</g>
<g>
</g>
<g>
</g>
<g>
</g>
</svg>
